# xmcd CD database file generated by Grip 3.0.7
# 
# Track frame offsets:
#       150
#       25172
#       44230
#       55254
#       85319
#       106599
#       128112
#       147297
#       176254
#       195302
#       215048
#       238266
#       255851
#       271491
#       289171
# 
# Disc length: 4337 seconds
# 
# Revision: 2
# Processed by: cddbd v1.5.1PL0 Copyright (c) Steve Scherf et al.
# Submitted via: Grip 3.0.7
# 
DISCID=d910ef0f
DTITLE=Led Zeppelin - Box Set [CD1]
DYEAR=1990
DGENRE=Rock
TTITLE0=Whole Lotta Love
TTITLE1=Heartbreaker
TTITLE2=Communication Breakdown
TTITLE3=Babe I'm Gonna Leave You
TTITLE4=What Is And What Should Never Be
TTITLE5=Thank You
TTITLE6=I Can't Quit You Baby
TTITLE7=Dazed And Confused
TTITLE8=Your Time Is Gonna Come
TTITLE9=Ramble On
TTITLE10=Travelling Riverside Blues
TTITLE11=Friends
TTITLE12=Celebration Day
TTITLE13=Hey Hey What Can I Do
TTITLE14=White Summer - Black Mountain Side
EXTD=
EXTT0=
EXTT1=
EXTT2=
EXTT3=
EXTT4=
EXTT5=
EXTT6=
EXTT7=
EXTT8=
EXTT9=
EXTT10=
EXTT11=
EXTT12=
EXTT13=
EXTT14=
PLAYORDER=
